<svg xmlns="http://www.w3.org/2000/svg" width="343.622" height="376.574" viewBox="0 0 343.622 376.574">
  <defs>
    <style>
      .cls-1 {
        fill: #fff;
      }
    </style>
  </defs>
  <g id="Group_2" data-name="Group 2" transform="translate(-112.073 -295.987)">
    <path id="Union_8" data-name="Union 8" d="M-1701.929,658.644c-1.937-14.32-2.716-25.417-3.776-38.283-.077-.931-.1-1.869-.087-2.791-4.165-.757-7.743-1.383-10.065-1.742-7.579-1.174-9.677,1.7-9.677,1.7l-52.609,50.958s-3.271.278,1.121-5.4c5.837-7.549,43.841-49.174,55.292-50.957.836-.13,7.349.937,16.057,2.5.172-2.754.416-5.053-.033-6.083-9.75-22.366-11.908-37.116-12.312-40.685a55.238,55.238,0,0,1-10.76-2.316c-4.077-1.456-13.1-85.038-13.1-85.038s-.276-16.307,4.79-26.039,16.9-13.128,16.9-13.128,3.466-6.962,2.447-13.664-3.966-6.557-6.831-14.784c-.057-.162-.16-.161-.3-.059l.089.106-.6.464-.33.435c-.517.675-1.091,1.349-1.472.963l-18.523,14.362s-3.671,4.463-7.158,4.109c-3.339-.34-8.881-7.556-8.881-7.556s-23.87-30.322-29.389-35.971c-1.744-1.785-3.925-3.191-4.866-4.32a1.046,1.046,0,0,0-.791.2c-1.45,1.066-2.626,1.514-2.277,3.862.851,5.726,4.931,14.432,4.931,14.432v5.251l11.283,1.139a99.111,99.111,0,0,1,8.087,6.892,51.8,51.8,0,0,1,5.7,6.628,51.733,51.733,0,0,1-1.193,8.748,20.3,20.3,0,0,1-2.651,6.1h-5.833a17.8,17.8,0,0,0,0,3.275c.093,1.683,1.027,4.489,0,9.235a37.048,37.048,0,0,1-4.109,9.746v5.78s6.525.887,9.374,2.254c1.967.942,17.43,11.6,19.751,22.9,3.846,18.722,4.748,47.569,3.712,68.1-.763,15.1-1.856,24.854-1.856,24.854s-2,.553-2.917-.928c-.3-.482.546-6,0-6.893s-7.329-.728-8.218-2.121a11.713,11.713,0,0,0,.928,4.375c.895,1.723,3.523,2.056,2.651,2.518-.707.374-3.725,1.653-7.828-2.114-.124-.113-2.611.018-4.2,2.81-1.334,2.347-1.806,7.361-4.064,7.47-2.063.1-4.449-2.473-6.673-4.421-.454-.4-3.006-4.506-7.423-3.049a76.516,76.516,0,0,0-13.785,5.833c-3.449,1.991-6.228,4.784-7.159,4.109a7.577,7.577,0,0,0-1.227.243,19.467,19.467,0,0,1-7.521-.243c-1.5-.3-4.025-2.754-6.363-3.181a21.265,21.265,0,0,0-4.038-.172,22.189,22.189,0,0,1-7.362-.756c-1.006-.319-5.575-3.961-6.892-4.407-4.64,1.094-5.94.652-7.556,0-1.464-.591-1.6-10.578-3.314-11.235-1.94-.744-1.973,3.729-4.772,5.3-2.173,1.223-7.457.365-9.941-3.082s2.22-8.934,0-10.7c-1.187-.945-2.752-.612-4.748-.279a17.343,17.343,0,0,1-4.664.279c-2.692-.26-7.287-2.8-7.026-4.208.19-1.024,2.186-1.334,3.447-2.188,1.8-1.236,3.893-2.75,7.025-5.036,1.688-1.234,11.74-12.887,22.8-29.718,6.989-10.635,14.134-25.439,20.812-34.506,6.585-8.941,13.677-14.237,15.376-15.111.2-2.856,13.26-4.441,13.26-4.441v-7.49a14.471,14.471,0,0,1-7.688-6.1c-1.667-2.516-2.138-6.893-3.218-10.055a9.773,9.773,0,0,0-2.35-3.864h-6.628a26.4,26.4,0,0,1-4.773-7.158,21.418,21.418,0,0,1-1.325-7.953,69.73,69.73,0,0,1,11.267-9.147,73.509,73.509,0,0,1,10.074-5.036l11.116-3v-4.842s-4.63-9.868-4.63-14.842,2.279-5.053,4.63-5.053a1.129,1.129,0,0,1,.325.073c-.073-1.054,4.018-1.525,5.332-3.014,2.235-2.53,6.516-6.456,6.516-6.456a16.409,16.409,0,0,1-.422,3.137c-.392,1.614-1.913,2.949-1.147,3.318a18.849,18.849,0,0,1,3.137,1.267,23.5,23.5,0,0,1,3.276,2.4l1.193,7.821a92.852,92.852,0,0,0,11.665,16.172c7.953,5.434,8.544,11.021,14.051,9.941,3.861-.755,7.18-4.728,10.737-7.953,3.722-3.373,7.134-6.486,8.419-7.659a12.408,12.408,0,0,1-.553-1.776c-.449-2.09,5.057-6.936,5.057-6.936a22.386,22.386,0,0,1,3.4-6.767c2.5-3.374,5.206-4.354,6.591-6.729,3.169-5.436,2.684-8.248,2.684-8.248l7.921,0a11.511,11.511,0,0,0,1.257-4.855,21.79,21.79,0,0,0-.558-4.372c-6.54,1.153-14.063,2.355-14.666,2-.978-.575-2.013-5.549-2.013-5.549l-.656-1.464-.535-3.977h-2.87l3.858-6.7V342.24c0-6.594-.443-9.491,6.955-15.178,1.666-1.281,9.582-2.514,11.4-3.908,1.183-.906.977-4.94,2.3-5.777,3.273-2.077,1.74-2.377,5.387-2.377,8.8,0,9.441,4.7,11.272,9.694s-1.317,13.079-1.317,13.079-.331,11.65-4.018,18.862c-.458,3.434-.657,8.589,1.572,11.522,2.665,3.506,7.961,4.547,10.442,4.847h1.332a140.38,140.38,0,0,0,9.148,17.048c5.27,8.205,11.036,9.179,11.93,15.774a6.565,6.565,0,0,1-.085,2.27,10.965,10.965,0,0,0,5.213,2.216c1.43.122,2.646-.953,4.392-3.235,4.784-6.255,10.039-16.452,10.039-16.452l1.883-5.49,1.334-11.844s3.044-5.314,7.141-8.1c1.884-1.283,5.292-.9,6.118-.714.768.169-5.421,3.718-6.118,5.609-.266.727,7.664,1.49,11.42,5.245,1.4,1.4.684,6.669-.539,6.364s-.009-4.567-2.826-6.364a3.886,3.886,0,0,0-.557-.294,3.174,3.174,0,0,0-.987,1.069c-.641,1.177-.325,3.6.715,6.033a28.468,28.468,0,0,0,1.921,4.213c1.314,2.1,2.344,3.97,2.344,3.97v4.706h10.292s7.851.526,14.071,3.965,8.948,5.939,11.93,11.828c.955,1.885,0,12.453,0,12.453a15.423,15.423,0,0,1-4.989.58,12.229,12.229,0,0,0-1.952.044c-1.542.124-2.834.248-4.253-1.311-1.976-2.172-.287-3.45-1.7-7.421-.879-2.479-1.633-6.563-2.292-6.275-.222.1-.558,2.146,0,4.274.517,1.969,1.973,4.266,1.84,6.426a73.124,73.124,0,0,1-2.174,10.914,36.1,36.1,0,0,0,0,9.886,25.805,25.805,0,0,0,3.435,8.679,4.863,4.863,0,0,0,3.016,2.414s22.452-10,34.3,18.071,13.08,94.2,13.08,94.2a2.153,2.153,0,0,1-1.493,2.156,5.053,5.053,0,0,1-1.559,0c-1.086-.1-2.3-.19-2.679.563-.484.967.636,2.162.951,3.681a9.881,9.881,0,0,1,0,3.151,17.117,17.117,0,0,1-9.941.62c-2.968-.84-5.887-5.531-7.783-4.706-4.638,2.015,2.736,9.135.724,11.825s-5.1,1.339-6.9.985c-1.767-.35-2.03-1.373-3.452-.662-1.111.555-.369,2.474-.349,3.924a2.4,2.4,0,0,1-.579,1.643,12.038,12.038,0,0,1-5.384-.644c-2.485-.96-5.145-3.351-7.739-3.2-1.914.107-2.233,3.324-2.121,4.64.193,2.2,1.672,5,0,5.7-4.117,1.723-7.735-.521-15.144-3.182-4.169-1.5-8.363-4.985-12.063-4.9-9.634.21-4.587,9.04-12.157,9.589s-13.193.037-19.373-5.961c-2.768-2.684-6.056-5.725-7.137-8.863-.577-1.67.936-2.217,1.96-3.53a7.065,7.065,0,0,0,1.216-3.274c.05-3.882-3.146-8.419-5.882-6.824-1.672.976-2,2.539-3.844,2.9-6.078,1.2-20.55.549-20.55.549s-3.137-.137-4.157-1.411a3.313,3.313,0,0,1-.471-2.9s6.281-8.7,14.282-26.847c7.831-17.755,17.4-44.985,27.33-62.5,2.7-4.766,7.5-7.832,10.081-11.873,6.375-9.978,21.336-11.279,21.329-11.824-.027-2.267-8.987-5.02-10.163-13.216-1.1-7.3-2.442-.8-5.132,3.648-.986,1.633-2.321,2.732-3.608,2.549-1.715-.243-4.136-3.623-6.039-6.2-2.5-3.368-3.992-3.206-4.315-6.9s1.41-4.548,2.9-9.177c.9-2.787,1.782-4.665,3.093-7.882,3.167-7.772.94-7.456,5.742-12.547s13.462-7.816,13.462-7.816v-4.706a19.854,19.854,0,0,1-5.085-7.754,14.28,14.28,0,0,1,.171-7.815,9.791,9.791,0,0,0-2.119.577A65.3,65.3,0,0,1-1629.9,386.5c-.448,1.127-2.042,1.468-2.651,2.957-5.374,13.137-12.546,32.487-14.173,34.49-2.488,3.064-17.509-6.644-19.339-7.844-.422.215-.678.326-.678.326a4.755,4.755,0,0,1-5.17,0c-2.651-1.756-5.435-7.025-5.435-7.025a149.049,149.049,0,0,1-6.889,16.073c-4.641,9.231-10.872,19.583-9.449,22.268,1.072,2.023,4.6,6.9,5.611,12.171a46.58,46.58,0,0,1,0,14.678s-.849,13.647-3.792,30.907c-2.218,13-6.381,28.067-8.088,41.812-.673,5.422-.086,10.479-.538,15.2-.1.222-.2.436-.311.642a187.277,187.277,0,0,1,4.6,29.153c.577,7.607.769,15.966.95,24.215,19.345,3.581,42.166,8.042,42.166,8.042l105.435,18.947s-13.007,1.541-43.345-3.2S-1669,624.566-1669,624.566s-13.331-2.608-26.181-5.027c.232,10.251.521,20.165,1.6,28.053.7,5.107,3.207,8.7,3.957,12.4a104.4,104.4,0,0,0,2.759,10.408l-.845,7.723-4.887,13.454A119.212,119.212,0,0,1-1701.929,658.644Z" transform="translate(1998.073 -19.013)"/>
    <path id="Path_41" data-name="Path 41" class="cls-1" d="M1.445-1.594c2.194-.693,3.8,5.282,7.688,5.17s10.1-6.191,12.46-5.17C25.982.3,14.17,6.625,9.133,6.625S-3.305-.094,1.445-1.594Z" transform="translate(287 361)"/>
    <path id="Path_42" data-name="Path 42" class="cls-1" d="M4,4.729c2.209,0-.656-5.106,3.013-4.157s1.1,2.6.627,4.157C7.269,5.984,5.217,7,4,7,2.953,7,.509,6.459-.046,4.729-.47,3.431-.752.022,1.052-.134S1.791,4.729,4,4.729Z" transform="translate(290 371)"/>
    <path id="Path_44" data-name="Path 44" class="cls-1" d="M3.937.227C6.422.227,8.219,1.791,8.219,4S6.985,8,4.5,8A4.272,4.272,0,0,1,0,4,3.609,3.609,0,0,1,3.937.227Z" transform="translate(289 381)"/>
    <path id="Path_45" data-name="Path 45" class="cls-1" d="M.756-1.271c.931,0,.322,4.468,1.733,4.487,1.849.021,1.9-3.85,2.77-4.487,0,.514,2.493-.261,2.634,1.02a6.947,6.947,0,0,1,0,3.467A5,5,0,0,1,3.917,5.867c-2.761,0-5.2-.382-5.2-2.039S-2.006-1.271.756-1.271Z" transform="translate(288 393)"/>
    <path id="Path_43" data-name="Path 43" d="M2,0A2,2,0,1,1,0,2,2,2,0,0,1,2,0Z" transform="translate(291 383)"/>
    <path id="Path_46" data-name="Path 46" class="cls-1" d="M5.742.793c4.142,0,8.973,2.422,8.973,4.079S9.885,3.24,5.742,3.24-1.6,1.657-1.6,0,1.6.793,5.742.793Z" transform="translate(291 402)"/>
    <path id="Path_47" data-name="Path 47" class="cls-1" d="M6.938.232c4.142,0,7.778,2.983,7.778,4.64S11.544,2.877,7.4,2.877,1.09,2.436,1.09,1.81,2.8.232,6.938.232Z" transform="translate(284 423)"/>
    <path id="Path_48" data-name="Path 48" class="cls-1" d="M5.447-6.37c.541,0,1.189,3.177.65,6.08C5.648,2.129,4,4.31,4,6c0,3.314-.432,7.958-1.432,7.958a7.167,7.167,0,0,0-1.392.835A15.049,15.049,0,0,1,0,10.848,32.966,32.966,0,0,1,0,6,9.189,9.189,0,0,1,.759,1.287C1.775-.64,4.174-2.365,4-3.586c-.251-1.744-5.094.839-4.308-.789C.671-6.41,4.95-6.37,5.447-6.37Z" transform="translate(271 380)"/>
    <path id="Path_49" data-name="Path 49" class="cls-1" d="M1.283-2.3c2.761,0,13.7,12.344,14.367,17.188.1.735-3.225-1.445-7.687-6.9C6.308,5.962,1.283-2.9,1.283-2.3,1.283.829,18.8,30.1,16.356,28.146c-1.371-1.092-11.2-15.668-11.135-14.831.075.665,9.1,13.948,7.779,13.948-3.59,0-6.448-4.207-9.862-11.762S-2.307-2.3,1.283-2.3Z" transform="translate(271 442)"/>
    <path id="Path_50" data-name="Path 50" class="cls-1" d="M1.395-1.951C3.6-1.951,4.14,5.078,5.944,11S10.82,21.736,8.611,21.736,5.552,16.922,3.748,11-.814-1.951,1.395-1.951Z" transform="translate(266 486)"/>
    <path id="Path_51" data-name="Path 51" class="cls-1" d="M3.02,1.555C6.61,1.555,12.6.529,12.6,2.779s1.754,5.71-1.835,5.71.264-2.051-2.592-3.158c0-.992-3.892-.618-5.769-1.329C.3,3.2.862,1.555,3.02,1.555Z" transform="translate(295 455)"/>
    <path id="Path_52" data-name="Path 52" class="cls-1" d="M1.73-.266c1.381,0,3.765.188,3.765,1.569S4.523,7.185,3.142,7.185c-.748,0,.691-3.208-.47-4.628C2.048,1.8-.7,3.19-.7,2.558A2.741,2.741,0,0,1,1.73-.266Z" transform="translate(301 468)"/>
    <path id="Path_53" data-name="Path 53" class="cls-1" d="M19.877-1.074c4.971,0-4.242,12.491-4.242,26.574,0,5.979-1.53,11.7-1.723,18.23-.153,5.185.231,12.262-1.458,14.846-.7,1.074-4.884.978-5.7.928-4.041-.249,5.037-18.261,5.037-32.344,0-6.323,2.479-12.435,3.844-17.763C17.141,3.513,17.139-1.074,19.877-1.074Z" transform="translate(282 488)"/>
    <path id="Path_54" data-name="Path 54" class="cls-1" d="M6.938.232c4.142,0,9.9,2.744,9.9,4.4S11.544,2.877,7.4,2.877s-8.208-.363-8.208-.99S2.8.232,6.938.232Z" transform="translate(193.536 393.431) rotate(-17)"/>
    <path id="Path_55" data-name="Path 55" class="cls-1" d="M5-.643h7.392S12.746,3.75,5,3.75-1.648-.643-1.648-.643Z" transform="translate(198 397)"/>
    <path id="Path_56" data-name="Path 56" class="cls-1" d="M6.145-1.353c3.038,0,4.948.292,4.948.845,0,.331-1.881.287-3.56,1.026C6.894.807,6.718,2,5.5,2,2.462,2,0,1.552,0,1,0,.691,1.808.7,3.49.035,4.289-.291,4.8-1.353,6.145-1.353Z" transform="translate(202 449)"/>
    <path id="Path_57" data-name="Path 57" class="cls-1" d="M-.988-2.59s4-.03,9.654,4.873S18.424,9.169,21.19,22.8c1.27,6.258,0,27.141,0,34.067,0,9.394-3.837,19.507-5.567,27.969-.817,4-3.207,15.146-2.05,16.709,1.387,1.9,1.435-11.546,3.675-7.238.692,1.331,1.683,9.405,0,12.407-1.221,2.18-3.93.009-6.26,1.379-3.24,1.911-2.871,5.846-7.031,6.535s-4.049-4.394-9.609-3.778c-6.054.672-11.418,5.478-10.869,3.049.483-2.139,11.818-21.771,17.1-26.246,2.078-1.761-2.362,22.17,0,21.607s8.5-20.082,9.446-23.859c2.954-11.794,6.12-26.155,7.223-39.668C18.7,27.9,9.01,7.026,8.666,6.4,7.713,4.658,4.966.964,4.44,3.6,3.162,10,6.958,32.827,5.284,31.295S-.988-2.59-.988-2.59Z" transform="translate(216 451)"/>
    <path id="Path_58" data-name="Path 58" class="cls-1" d="M1.5,0C2.328,0,3,8.283,3,18.5S1.915,39.078,1.915,39.078a9.355,9.355,0,0,1-3.56.664c-1.765-.091-3.05.414-3.68-1.991S-.016,1.671-.016,1.671Z" transform="translate(241 515)"/>
    <path id="Path_59" data-name="Path 59" class="cls-1" d="M.5,0C.776,0,2.943,1.228,2.943,2.609c0,.467-1.469.316-2.035.893C.473,3.982.694,5.733.159,5.358A5.061,5.061,0,0,1-1.234,2,2.208,2.208,0,0,1,.5,0Z" transform="translate(241 505)"/>
    <path id="Path_60" data-name="Path 60" class="cls-1" d="M0-2.33C1.1-2.33,4.053-.852,5.063,2.2S4.538,9.8,3.434,9.8,3.779,6.751,2.77,3.7-1.1-2.33,0-2.33Z" transform="translate(209 455)"/>
    <path id="Path_61" data-name="Path 61" class="cls-1" d="M4.27-3.082c2.672-.129,4.444,12.03-2.5,32.009S-22.676,76.834-23.5,76.834-7.93,45.115-.987,25.136,1.6-2.953,4.27-3.082Z" transform="translate(202 459)"/>
    <path id="Path_63" data-name="Path 63" class="cls-1" d="M4.868-17.812C5.973-17.812,4,6.268,4,14c0,3.657,1.229,19.105,3.029,35.093,1.942,17.249,4.394,35.027,2.6,35.641C8.687,85.055,8.8,80.62,7.578,73.3,6.9,69.235,4.761,64.779,3.96,59.24c-.934-6.458-.167-14.222-.8-21.108C2.1,26.523,0,16.8,0,14,0,12.595,2.264-10.108.783-9.208-.4-8.487-3.2,10.215-6.154,14.011s-4.895-8.034-4.895-8.034L-9.493.72s1.5-2.535,1.5-.194c0,2.684-1.029,11.01.382,8.617,2.364-4.008,7.57-24.456,7.57-24.456S4.634-17.812,4.868-17.812Z" transform="matrix(0.891, 0.454, -0.454, 0.891, 189.574, 471.618)"/>
    <path id="Path_62" data-name="Path 62" class="cls-1" d="M6.805,1.272c3.214-2.784,8.484-5.523,8.484-3.314S11.611-.186,8.4,2.6s-5.965,8.7-5.965,6.5S3.591,4.056,6.805,1.272Z" transform="translate(184 456)"/>
    <path id="Path_64" data-name="Path 64" class="cls-1" d="M0,.525c1.657,0,1.087,4.838,4.013,8.881s10.472,6.5,8.086,7.026-7.547-1.127-10.472-5.17S-1.657.525,0,.525Z" transform="translate(190 424)"/>
    <path id="Path_67" data-name="Path 67" class="cls-1" d="M.1-1.772c.518,0,3.392.08,4.283,1.631C5.473,1.735,5.56,5.812,3.776,6.385.921,7.3,2.709.777,1.329.777S4.183,9.241.1,6.385-1.276-1.772.1-1.772Z" transform="translate(201 431)"/>
    <path id="Path_65" data-name="Path 65" class="cls-1" d="M4.113-.619C6.1-.752,6.366,2.96,6.366,2.96S1.1,13.432,0,13.432.831,8.461,1.859,4.948,2.124-.487,4.113-.619Z" transform="translate(207 427)"/>
    <path id="Path_66" data-name="Path 66" class="cls-1" d="M1.2-1.389C4.769-1.453,2.339.941,2.288,2.788S1.244,6.925.692,6.925.311,4.54.439,2.462-2.359-1.324,1.2-1.389Z" transform="matrix(0.819, 0.574, -0.574, 0.819, 214.902, 431.969)"/>
    <path id="Path_68" data-name="Path 68" class="cls-1" d="M7.662-.585c4.971,0,7.922.9,7.922,1.726S12.632,2.4,7.662,2.4.445,6.475-1.2,5.141,2.691-.585,7.662-.585Z" transform="translate(374 378)"/>
    <path id="Path_69" data-name="Path 69" class="cls-1" d="M6.76,1.278c4.971,0,10.432-1.309,10.432.941S9.142,8.181,4.171,8.181-.143,5.725-.143,3.239,1.789,1.278,6.76,1.278Z" transform="translate(376 381)"/>
    <path id="Path_72" data-name="Path 72" class="cls-1" d="M2.183-1.2c.828,0,.811,2.709.811,4.366s0,4.793-.827,4.793S.886,4.7.886,3.047,1.355-1.2,2.183-1.2Z" transform="matrix(0.883, 0.469, -0.469, 0.883, 374.584, 449.647)"/>
    <path id="Path_71" data-name="Path 71" class="cls-1" d="M8.176.805C8.176,1.72,6.1,2.268,4.669,4,3.492,5.422,2.9,7.988,2.028,7.988c-1.657,0-.523-3.507,1.014-5.3S8.176-1.128,8.176.805Z" transform="translate(379 437)"/>
    <path id="Path_70" data-name="Path 70" class="cls-1" d="M10.226-1.184c1.254,0-4.41,3.1-2.594,3.379,1.515.225,5.189-1.146,5.189-.543,0,.7-.971,2.166-2.343,3.555-.425.45-4.46,1.211-5.462,1.211-2.761,0-5.469,1.1-5.469,0,0-.263-1.172-1.245,0-2.232C.122,3.7,2.994,3.278,3.77,2.2c.814-1.143.4-3.224,1.87-4.042A4.8,4.8,0,0,1,10.226-1.184Z" transform="translate(390 428)"/>
    <path id="Path_73" data-name="Path 73" class="cls-1" d="M17.231-3.474C21.1-3.474,14,14.5,14,14.5S1.635,32.119-8.1,47.879c-9.633,15.595-16.659,33.258-18.611,33.258-2.494,0,4.768-17.411,15.681-36.188,5.771-9.93,15.056-20.924,18.956-28.433C18.912-4.637,13.365-3.474,17.231-3.474Z" transform="translate(377 450)"/>
    <path id="Path_74" data-name="Path 74" class="cls-1" d="M-.965-1.989c1.1,0,4.129,2.626,5.3,7.648S3.912,18.4,2.808,18.4,1.839,10.681.667,5.659-2.069-1.989-.965-1.989Z" transform="translate(398 442)"/>
    <path id="Path_75" data-name="Path 75" class="cls-1" d="M0-4.232C1.523-3.825,3.344.322,3.455,5.353c.086,3.879,0,9.9,0,14.683C3.455,23.653.62,32.976-.521,37.37c-1.862,7.181-2.81,8.871-4.589,8.871C-7.863,46.241.7,26.684.7,16.467S-2.863-5,0-4.232Z" transform="translate(405 442)"/>
    <path id="Path_76" data-name="Path 76" class="cls-1" d="M6.511-7.291c1.856.663,0,17.078,0,27.572S1.209,49.311-.78,49.708s5.3-18.934,5.3-29.428S4.655-7.954,6.511-7.291Z" transform="translate(410 463)"/>
    <path id="Path_80" data-name="Path 80" class="cls-1" d="M-3.5-10.764c1.381,0,8.776,3.748,9.65,24.3S1.381,71.435,0,71.435s2.191-43.89,2.191-55.488S-4.877-10.764-3.5-10.764Z" transform="translate(420 451)"/>
    <path id="Path_79" data-name="Path 79" class="cls-1" d="M2.358,18.792c.8,0,.8-11.3,1.551-21.54.761-10.431.862-19.99,2.24-14.992,0,4.106,2.82,42.926,2.068,48.251-.127.907-3,1.152-4.308,2.585-1.056,1.163.453,3.679,0,4.48-1.216,2.153-6.146,1.034-6.72,1.034-1.383,0-1.589,2.488,0-9.478.068-.514,1.86,3.12,2.068,0C-.223,21.322-1,1.345-.743.354,1.325-7.745.7,18.792,2.358,18.792Z" transform="translate(444 512)"/>
    <path id="Path_77" data-name="Path 77" class="cls-1" d="M0-.984c.17,0,.68,2.3,1.5,2.651.373.145,1.088-1.585,1.5-.8C3.575,1.955,3,4.2,3,6c0,3.314-.672,5.741-1.5,5.741-.33,0,.347-1.95,0-2.916C1.225,8.1,0,7.995,0,6,0,2.686-.828-.984,0-.984Z" transform="translate(438 484)"/>
    <path id="Path_78" data-name="Path 78" class="cls-1" d="M1-2.128c.552,0,1,3.247,1,4.628S1.552,5,1,5C.743,5,1.288,3.819,1,3.128.907,2.963,0,3.239,0,2.5,0,1.119.448-2.128,1-2.128Z" transform="translate(444 481)"/>
    <path id="Path_81" data-name="Path 81" class="cls-1" d="M-7.607-3.657A14.486,14.486,0,0,1,.148-1.933,30.609,30.609,0,0,1,11,10.819c3.447,4.136,6.977,27.36,5.342,26.71-1.527-.6-2.374-11.86-5.342-20.334C7.848,8.182,2.565,1.858,1.182,1.858c-3.59,0,2.585,3.791,0,3.446S-11.2-3.657-7.607-3.657Z" transform="translate(422 437)"/>
    <path id="Path_82" data-name="Path 82" class="cls-1" d="M-2.23-11.44c1.657,0,7.977,7.5,6.94,19.782S-4.722,37.7-6.379,37.7,1.37,19.453,2.407,7.169-3.887-11.44-2.23-11.44Z" transform="matrix(0.891, -0.454, 0.454, 0.891, 430.922, 442.179)"/>
  </g>
</svg>
